<svg width="50" height="50" viewBox="0 0 50 50" fill="none" xmlns="http://www.w3.org/2000/svg">
<circle cx="25" cy="25" r="24.5" fill="white" stroke="#FEC400"/>
<path fill-rule="evenodd" clip-rule="evenodd" d="M19.9053 16C18.2467 16 16.7468 16.4145 15.6582 17.4254C14.5592 18.4459 13.9999 19.9613 13.9999 21.9054V29.0946C13.9999 31.0388 14.5592 32.5541 15.6582 33.5746C16.7468 34.5855 18.2467 35 19.9053 35H30.1756C31.8342 35 33.3341 34.5855 34.4226 33.5746C35.5216 32.5541 36.081 31.0388 36.081 29.0946V21.9054C36.081 19.9613 35.5216 18.4459 34.4226 17.4254C33.3341 16.4145 31.8342 16 30.1756 16H19.9053ZM32.4643 21.764C32.8008 21.5039 32.8629 21.0201 32.6027 20.6835C32.3427 20.3469 31.859 20.2849 31.5223 20.545L25.8253 24.947C25.363 25.3044 24.7177 25.3044 24.2554 24.947L18.5584 20.545C18.2218 20.2849 17.7381 20.3469 17.478 20.6835C17.2178 21.0201 17.2799 21.5039 17.6165 21.764L23.3135 26.1661C24.3306 26.952 25.7501 26.952 26.7673 26.1661L32.4643 21.764Z" fill="#FEC400"/>
</svg>
