<svg width="30" height="30" viewBox="0 0 30 30" fill="none" xmlns="http://www.w3.org/2000/svg">
<g clip-path="url(#clip0_157_3298)">
<path d="M24.1634 7.10775C24.1573 6.83131 23.9315 6.61035 23.655 6.61035H6.345C6.0685 6.61035 5.84262 6.83137 5.83664 7.10775L5.35031 29.4806C5.34405 29.7657 5.57344 30.0002 5.85867 30.0002H24.1414C24.4265 30.0002 24.656 29.7657 24.6497 29.4806L24.1634 7.10775Z" fill="#E53935"/>
<path d="M14.0948 27.9663C10.9581 27.9663 8.43468 25.3874 8.50289 22.2515L8.84291 6.61035H6.34494C6.06838 6.61035 5.84256 6.83137 5.83658 7.10775L5.35025 29.4806C5.34404 29.7657 5.57344 30.0002 5.85867 30.0002H24.1414C24.4265 30.0002 24.656 29.7657 24.6497 29.4807L24.6168 27.9663H14.0948Z" fill="#B71B1C"/>
<path d="M11.4407 10.9325C12.1427 10.9325 12.7118 10.3634 12.7118 9.66133C12.7118 8.95927 12.1427 8.39014 11.4407 8.39014C10.7386 8.39014 10.1695 8.95927 10.1695 9.66133C10.1695 10.3634 10.7386 10.9325 11.4407 10.9325Z" fill="#B71B1C"/>
<path d="M18.5593 10.9325C19.2614 10.9325 19.8305 10.3634 19.8305 9.66133C19.8305 8.95927 19.2614 8.39014 18.5593 8.39014C17.8573 8.39014 17.2881 8.95927 17.2881 9.66133C17.2881 10.3634 17.8573 10.9325 18.5593 10.9325Z" fill="#B71B1C"/>
<path d="M10.4237 24.534C10.2608 24.534 10.0984 24.4719 9.97434 24.3478C9.72608 24.0996 9.72608 23.6974 9.97434 23.4491L19.1269 14.2965C19.3751 14.0483 19.7773 14.0483 20.0256 14.2965C20.274 14.5448 20.2739 14.947 20.0256 15.1953L10.8732 24.3478C10.749 24.4719 10.5865 24.534 10.4237 24.534Z" fill="white"/>
<path d="M11.9491 18.9405C10.4774 18.9405 9.27966 17.7428 9.27966 16.271C9.27966 14.7993 10.4774 13.6016 11.9491 13.6016C13.4209 13.6016 14.6186 14.7993 14.6186 16.271C14.6186 17.7428 13.421 18.9405 11.9491 18.9405ZM11.9491 14.8728C11.178 14.8728 10.5509 15.4999 10.5509 16.271C10.5509 17.0422 11.178 17.6693 11.9491 17.6693C12.7203 17.6693 13.3474 17.0422 13.3474 16.271C13.3474 15.4999 12.7203 14.8728 11.9491 14.8728Z" fill="white"/>
<path d="M18.0509 25.0426C16.5791 25.0426 15.3814 23.8448 15.3814 22.3731C15.3814 20.9013 16.5791 19.7036 18.0509 19.7036C19.5226 19.7036 20.7203 20.9013 20.7203 22.3731C20.7203 23.8448 19.5226 25.0426 18.0509 25.0426ZM18.0509 20.9747C17.2797 20.9747 16.6526 21.6019 16.6526 22.373C16.6526 23.1442 17.2797 23.7713 18.0509 23.7713C18.822 23.7713 19.4491 23.1442 19.4491 22.373C19.4491 21.6019 18.822 20.9747 18.0509 20.9747Z" fill="white"/>
<path d="M18.5593 10.1695C18.2783 10.1695 18.0509 9.94207 18.0509 9.661V4.06781C18.0509 2.38547 16.6823 1.01695 15 1.01695C13.3177 1.01695 11.9491 2.38547 11.9491 4.06781V9.66105C11.9491 9.94213 11.7217 10.1695 11.4407 10.1695C11.1596 10.1695 10.9322 9.94213 10.9322 9.66105V4.06781C10.9322 1.82484 12.757 0 15 0C17.243 0 19.0678 1.82484 19.0678 4.06781V9.66105C19.0678 9.94207 18.8404 10.1695 18.5593 10.1695Z" fill="#2A2A2A"/>
<path d="M11.4407 10.1696C11.1599 10.1696 10.9322 9.94195 10.9322 9.66117V8.64422C10.9322 8.36344 11.1599 8.13574 11.4407 8.13574C11.7214 8.13574 11.9491 8.36344 11.9491 8.64422V9.66117C11.9491 9.94201 11.7215 10.1696 11.4407 10.1696Z" fill="#FCE2E7"/>
<path d="M18.5593 10.1696C18.2786 10.1696 18.0509 9.94195 18.0509 9.66117V8.64422C18.0509 8.36344 18.2786 8.13574 18.5593 8.13574C18.8401 8.13574 19.0678 8.36344 19.0678 8.64422V9.66117C19.0678 9.94201 18.8401 10.1696 18.5593 10.1696Z" fill="#FCE2E7"/>
</g>
<defs>
<clipPath id="clip0_157_3298">
<rect width="30" height="30" fill="white"/>
</clipPath>
</defs>
</svg>
