<svg width="50" height="50" viewBox="0 0 50 50" fill="none" xmlns="http://www.w3.org/2000/svg">
<circle cx="25" cy="25" r="24.5" fill="white" stroke="#FEC400"/>
<path d="M30.3696 16.0002H20.7898C18.1458 16.0002 15.9999 18.1365 15.9999 20.771V26.4997V27.4577C15.9999 30.0921 18.1458 32.2284 20.7898 32.2284H22.2267C22.4854 32.2284 22.8303 32.4008 22.9931 32.6116L24.4301 34.518C25.0624 35.361 26.097 35.361 26.7292 34.518L28.1662 32.6116C28.3482 32.3721 28.6356 32.2284 28.9326 32.2284H30.3696C33.0136 32.2284 35.1595 30.0921 35.1595 27.4577V20.771C35.1595 18.1365 33.0136 16.0002 30.3696 16.0002ZM21.7478 25.58C21.2113 25.58 20.7898 25.1489 20.7898 24.6221C20.7898 24.0952 21.2209 23.6641 21.7478 23.6641C22.2746 23.6641 22.7057 24.0952 22.7057 24.6221C22.7057 25.1489 22.2842 25.58 21.7478 25.58ZM25.5797 25.58C25.0432 25.58 24.6217 25.1489 24.6217 24.6221C24.6217 24.0952 25.0528 23.6641 25.5797 23.6641C26.1066 23.6641 26.5376 24.0952 26.5376 24.6221C26.5376 25.1489 26.1161 25.58 25.5797 25.58ZM29.4116 25.58C28.8751 25.58 28.4536 25.1489 28.4536 24.6221C28.4536 24.0952 28.8847 23.6641 29.4116 23.6641C29.9385 23.6641 30.3696 24.0952 30.3696 24.6221C30.3696 25.1489 29.9481 25.58 29.4116 25.58Z" fill="#FEC400"/>
</svg>
